<svg xmlns="http://www.w3.org/2000/svg" xmlns:xlink="http://www.w3.org/1999/xlink" width="1366" zoomAndPan="magnify" viewBox="0 0 1024.5 576" height="768" preserveAspectRatio="xMidYMid meet" version="1.0"><defs><clipPath id="eee6e1a2f4"><path d="M 395.039062 172.914062 L 629 172.914062 L 629 402.992188 L 395.039062 402.992188 Z M 395.039062 172.914062 " clip-rule="nonzero"/></clipPath></defs><g clip-path="url(#eee6e1a2f4)"><path fill="#000000" d="M 623.308594 275.152344 C 629.679688 281.515625 629.679688 291.828125 623.308594 298.1875 L 523.101562 398.222656 C 519.914062 401.402344 515.734375 402.992188 511.554688 402.992188 C 507.390625 402.992188 503.210938 401.402344 500.027344 398.222656 L 399.820312 298.1875 C 393.449219 291.828125 393.449219 281.515625 399.820312 275.152344 C 406.191406 268.792969 416.519531 268.792969 422.90625 275.152344 L 511.554688 363.664062 L 600.21875 275.152344 C 606.605469 268.792969 616.9375 268.792969 623.308594 275.152344 Z M 500.027344 300.753906 C 503.210938 303.933594 507.390625 305.523438 511.554688 305.523438 C 515.734375 305.523438 519.914062 303.933594 523.101562 300.753906 L 623.308594 200.730469 C 629.679688 194.355469 629.679688 184.042969 623.308594 177.683594 C 616.9375 171.324219 606.605469 171.324219 600.21875 177.683594 L 511.554688 266.195312 L 422.90625 177.683594 C 416.519531 171.324219 406.191406 171.324219 399.820312 177.683594 C 393.449219 184.042969 393.449219 194.355469 399.820312 200.730469 Z M 500.027344 300.753906 " fill-opacity="1" fill-rule="nonzero"/></g></svg>